<svg xmlns="http://www.w3.org/2000/svg" xml:space="preserve" id="Capa_1" width="511.626" height="511.626" x="0" y="0" version="1.1"><style>path{fill:#000}@media (prefers-color-scheme:dark){path{fill:#fff}}</style><path d="M49.106 178.729q9.708 6.852 58.528 40.685 48.822 33.83 74.803 52.099 2.854 2.002 12.131 8.71 9.28 6.714 15.416 10.852 6.138 4.138 14.849 9.277c5.806 3.422 11.279 5.996 16.418 7.7 5.14 1.718 9.898 2.569 14.275 2.569h.575c4.377 0 9.137-.852 14.277-2.569 5.137-1.704 10.615-4.281 16.416-7.7q8.706-5.142 14.845-9.277c4.093-2.759 9.229-6.376 15.417-10.852 6.184-4.477 10.232-7.375 12.135-8.71 17.508-12.179 62.051-43.11 133.615-92.79 13.894-9.703 25.502-21.411 34.827-35.116 9.332-13.699 13.993-28.07 13.993-43.105q-.001-18.846-13.565-32.264-13.563-13.42-32.117-13.418H45.679q-21.983 0-33.832 14.844Q0 84.511 0 106.779c0 11.991 5.236 24.985 15.703 38.974 10.466 13.99 21.604 24.983 33.403 32.976"/><path d="M483.072 209.275c-62.424 42.251-109.824 75.087-142.177 98.501-10.849 7.991-19.65 14.229-26.409 18.699-6.759 4.473-15.748 9.041-26.98 13.702-11.228 4.668-21.692 6.995-31.401 6.995h-.578c-9.707 0-20.177-2.327-31.405-6.995q-16.843-6.992-26.98-13.702c-6.755-4.47-15.559-10.708-26.407-18.699-25.697-18.842-72.995-51.68-141.896-98.501C17.987 202.047 8.375 193.762 0 184.437v226.685c0 12.57 4.471 23.319 13.418 32.265q13.419 13.423 32.264 13.422h420.266q18.841 0 32.261-13.422c8.949-8.949 13.418-19.694 13.418-32.265V184.437c-8.186 9.132-17.7 17.417-28.555 24.838"/></svg>